<svg xmlns="http://www.w3.org/2000/svg" xmlns:xlink="http://www.w3.org/1999/xlink" version="1.1" width="516.375" height="516.375" style="" xml:space="preserve"><rect id="backgroundrect" width="100%" height="100%" x="0" y="0" fill="none" stroke="none"/>
















<g class="currentLayer" style=""><title>Layer 1</title><g id="svg_1" class="" fill="#e8e841" fill-opacity="1">
	<g id="svg_2" fill="#e8e841" fill-opacity="1">
		<polygon points="344.25,306 258.188,219.938 172.125,306 187.425,319.388 248.625,258.188 248.625,468.562 267.75,468.562     267.75,258.188 328.95,319.388   " id="svg_3" fill="#e8e841" fill-opacity="1"/>
		<path d="M457.088,189.337c-9.562-47.812-53.551-84.15-103.275-84.15c-17.213,0-32.513,3.825-45.9,11.475    c-22.949-42.075-66.937-68.85-116.662-68.85c-74.587,0-133.875,59.288-133.875,133.875c0,1.913,0,5.737,0,7.65    C22.95,204.638,0,237.15,0,277.312c0,53.55,42.075,95.625,95.625,95.625H229.5v-19.125H95.625c-42.075,0-76.5-34.425-76.5-76.5    c0-36.337,24.862-66.938,59.288-74.587c-1.913-7.65-1.913-13.388-1.913-21.038c0-63.112,51.638-114.75,114.75-114.75    c49.725,0,91.8,32.513,109.013,76.5c15.3-11.475,34.425-19.125,53.55-19.125c45.9,0,82.237,34.425,86.062,78.413    c32.513,7.65,57.375,38.25,57.375,74.587c0,42.075-34.425,76.5-76.5,76.5H286.875v19.125H420.75    c53.55,0,95.625-42.075,95.625-95.625C516.375,237.15,491.513,202.725,457.088,189.337z" id="svg_4" fill="#e8e841" fill-opacity="1"/>
	</g>
</g><g class="" id="svg_20" opacity="1" fill="#cdb1b1" fill-opacity="1">
	<g id="svg_22" opacity="1" fill="#cdb1b1" fill-opacity="1">
		<polygon points="344.25,306 258.188,219.938 172.125,306 187.425,319.388 248.625,258.188 248.625,468.562 267.75,468.562     267.75,258.188 328.95,319.388   " id="svg_3" opacity="1" fill="#cdb1b1" fill-opacity="1"/>
		<path d="M457.088,189.337c-9.562-47.812-53.551-84.15-103.275-84.15c-17.213,0-32.513,3.825-45.9,11.475    c-22.949-42.075-66.937-68.85-116.662-68.85c-74.587,0-133.875,59.288-133.875,133.875c0,1.913,0,5.737,0,7.65    C22.95,204.638,0,237.15,0,277.312c0,53.55,42.075,95.625,95.625,95.625H229.5v-19.125H95.625c-42.075,0-76.5-34.425-76.5-76.5    c0-36.337,24.862-66.938,59.288-74.587c-1.913-7.65-1.913-13.388-1.913-21.038c0-63.112,51.638-114.75,114.75-114.75    c49.725,0,91.8,32.513,109.013,76.5c15.3-11.475,34.425-19.125,53.55-19.125c45.9,0,82.237,34.425,86.062,78.413    c32.513,7.65,57.375,38.25,57.375,74.587c0,42.075-34.425,76.5-76.5,76.5H286.875v19.125H420.75    c53.55,0,95.625-42.075,95.625-95.625C516.375,237.15,491.513,202.725,457.088,189.337z" id="svg_4" opacity="1" fill="#cdb1b1" fill-opacity="1"/>
	</g>
</g><g id="svg_5">
</g><g id="svg_6">
</g><g id="svg_7">
</g><g id="svg_8">
</g><g id="svg_9">
</g><g id="svg_10">
</g><g id="svg_11">
</g><g id="svg_12">
</g><g id="svg_13">
</g><g id="svg_14">
</g><g id="svg_15">
</g><g id="svg_16">
</g><g id="svg_17">
</g><g id="svg_18">
</g><g id="svg_19">
</g></g></svg>